<?xml version="1.0" encoding="utf-8"?>
<!-- Generator: Adobe Illustrator 27.5.0, SVG Export Plug-In . SVG Version: 6.00 Build 0)  -->
<svg version="1.1" xmlns="http://www.w3.org/2000/svg" xmlns:xlink="http://www.w3.org/1999/xlink" x="0px" y="0px"
	 viewBox="0 0 750 500" style="enable-background:new 0 0 750 500;" xml:space="preserve">
<g id="BACKGROUND">
	<rect style="fill:#FFFFFF;" width="750" height="500"/>
</g>
<g id="OBJECTS">
	<g>
		<g style="opacity:0.3294;">
			<path style="fill:#E8EDF7;" d="M97.876,228.981c-2.656,12.75,0.447,26.5,8.365,37.071c7.919,10.57,20.538,17.809,34.024,19.514
				c13.678,1.73,28.145-1.925,41.085,2.648c11.258,3.979,19.223,13.445,28.903,20.228c23.217,16.27,58.05,15.265,80.084-2.444
				s29.014-50.473,15.822-74.929c-8.273-15.337-23.097-26.88-30.557-42.594c-6.624-13.956-6.894-30.101-13.735-43.961
				c-8.063-16.335-25.191-28.004-43.826-31.011c-18.635-3.007-38.345,2.36-53.254,13.459c-14.909,11.099-25.039,27.613-29.05,45.263
				c-2.381,10.479-3.079,22.14-10.657,30.048C117.175,210.523,101.124,213.388,97.876,228.981z"/>
			<path style="fill:#E8EDF7;" d="M103.346,196.689c6.877-4.458,13.433-10.164,15.913-17.744c2.48-7.58-0.568-17.24-8.307-20.133
				c-4.41-1.648-9.43-0.88-13.872,0.687c-7.138,2.518-13.645,7.261-16.926,13.823c-3.281,6.561-2.826,15,2.123,20.524
				C87.226,199.37,96.823,200.918,103.346,196.689z"/>
			<path style="fill:#E8EDF7;" d="M122.741,142.726c6.133-1.042,10.792-7.19,9.917-13.084c-0.876-5.894-7.141-10.56-13.335-9.93
				c-6.194,0.63-11.292,6.451-10.85,12.389C108.914,138.04,114.935,144.053,122.741,142.726z"/>
		</g>
		<ellipse style="fill:#E8EDF7;" cx="170.062" cy="413.53" rx="131.398" ry="10.707"/>
		<g>
			<g>
				<path style="fill:#383838;" d="M208.809,94.625c1.918,3.973,6.307,6.006,10.369,7.725c4.063,1.719,8.457,3.726,10.412,7.68
					c2.693,5.445-0.362,12.307,1.916,17.939c1.963,4.855,7.383,7.55,9.644,12.273c2.024,4.228,1.007,9.584-2.067,13.124
					c-3.074,3.54-7.928,5.291-12.611,5.061c-4.682-0.23-9.162-2.304-12.756-5.314c-3.594-3.01-6.353-6.917-8.526-11.071
					c-4.85-9.272-6.891-19.99-5.789-30.395C200.109,104.984,202.4,97.993,208.809,94.625z"/>
				<path style="fill:#0542A2;" d="M210.615,139.504c-6.576,2.176-10.47,9.075-11.324,15.761
					c-0.854,6.686,0.672,13.381,1.539,20.045c1.228,9.443,1.13,19.064-0.29,28.513c-0.526,3.497-1.233,7.038-0.747,10.529
					c0.486,3.49,2.434,7.01,5.781,8.337c-0.317,0.702,0.227,1.535,0.948,1.831c0.721,0.296,1.546,0.222,2.324,0.105
					c19.304-2.886,27.665,1.351,35.824-6.581c1.7-1.653,1.278-4.421,1.016-6.727c-0.992-8.723-2-17.521-4.823-25.836
					c-3.032-8.931-8.097-17.119-10.767-26.162c-1.404-4.753-2.17-9.795-4.783-14.025
					C222.699,141.062,217.327,137.283,210.615,139.504z"/>
				<g>
					<g>
						
							<rect x="225.001" y="357.107" transform="matrix(0.9947 -0.1024 0.1024 0.9947 -36.6193 25.6279)" style="fill:#FEC3B9;" width="12.653" height="24.82"/>
						<g>
							<polygon style="fill:#525252;" points="228.535,381.425 234.408,380.934 236.222,389.031 231.206,390.161 							"/>
							<path style="fill:#383838;" d="M224.573,381.004c1.609,5.609,2.441,12.997,1.492,18.284
								c-0.673,3.746-1.545,8.376,0.623,14.242c14.096-1.94,28.351-2.714,42.225-2.263c0.722-2.929,0.879-6.308-0.987-8.679
								c-1.589-2.02-4.262-2.817-6.798-3.232c-3.572-0.585-7.21-0.637-10.799-1.111c-3.008-0.397-6.29-1.3-7.908-3.866
								c-0.987-1.566-1.654-3.574-1.815-5.418c-0.311-3.549-0.462-6.139-0.587-10.796c-2.9,0.595-4.082,0.79-7.038,0.939
								l-0.529,8.364l-3.42-7.454L224.573,381.004z"/>
							<path style="fill:none;stroke:#525252;stroke-width:0.7;stroke-miterlimit:10;" d="M226.63,380.656
								c2.052,7.544,2.376,14.451,1.485,21.797c-0.425,3.505-0.167,6.947,0.716,10.608"/>
						</g>
					</g>
					<g>
						
							<rect x="160.756" y="345.036" transform="matrix(0.8402 0.5423 -0.5423 0.8402 220.5643 -33.4807)" style="fill:#FEC3B9;" width="12.653" height="24.82"/>
						<g>
							<polygon style="fill:#525252;" points="157.454,364.99 162.343,368.28 158.694,375.732 154.073,373.477 							"/>
							<path style="fill:#383838;" d="M154.626,362.183c-2.253,5.383-6.225,11.668-10.273,15.199
								c-2.868,2.502-6.445,5.569-8.422,11.502c12.211,7.303,23.818,15.617,34.36,24.647c2.396-1.834,4.631-4.372,4.659-7.388
								c0.024-2.57-1.564-4.864-3.283-6.774c-2.421-2.69-5.227-5.007-7.731-7.621c-2.099-2.191-4.095-4.948-3.752-7.963
								c0.209-1.839,0.946-3.823,1.973-5.363c1.977-2.964,3.48-5.079,6.295-8.79c-2.634-1.35-3.679-1.937-6.079-3.67l-5.644,6.195
								l1.994-7.955L154.626,362.183z"/>
							<path style="fill:none;stroke:#525252;stroke-width:0.7;stroke-miterlimit:10;" d="M156.449,363.198
								c-3.118,7.17-7.185,12.761-12.476,17.935c-2.524,2.469-4.475,5.316-6.077,8.724"/>
						</g>
					</g>
					<g>
						<path style="fill:#BFCED9;" d="M226.755,198.871c10.665,54.041,19.018,108.685,24.18,164.373
							c-11.748,8.058-27.347,8.296-38.529,1.023c-6.106-55.999-10.818-110.332-13.958-166.676L226.755,198.871z"/>
						<path style="fill:#BFCED9;" d="M184.973,196.981c-6.341,37.355-1.742,58.91-2.655,89.302c0,0-32.592,59.748-33.05,59.735
							c8.725,13.629,23.811,21.746,38.477,20.742c7.031-27.002,24.613-50.124,28.27-77.92c1.449-11.01,1.01-59.898,1.114-90.405
							L184.973,196.981z"/>
						<g>
							<path style="fill:none;stroke:#93B3C9;stroke-width:0.7;stroke-miterlimit:10;" d="M217.549,209.535
								c-1.547,34.216,1.525,71.204-4.166,92.127c-5.504,20.236-18.483,39.523-25.239,64.359"/>
							<path style="fill:none;stroke:#93B3C9;stroke-width:0.7;stroke-miterlimit:10;" d="M217.507,225.568
								c1.403,0.134,2.702-0.918,3.31-2.19c0.607-1.272,0.672-2.725,0.726-4.134c0.255-6.634,0.511-13.268,0.766-19.903"/>
							<path style="fill:none;stroke:#93B3C9;stroke-width:0.7;stroke-miterlimit:10;" d="M216.655,279.163
								c3.998,30.582,7.551,59.196,11.549,89.778"/>
							<path style="fill:none;stroke:#93B3C9;stroke-width:0.7;stroke-miterlimit:10;" d="M197.274,199.8
								c-5.691,29.332,6.245,60.076-0.11,89.271c-5.504,25.285-23.909,45.768-32.958,70.011"/>
							<path style="fill:none;stroke:#93B3C9;stroke-width:0.7;stroke-miterlimit:10;" d="M216.291,360.537
								c10.981,2.881,23.028,1.469,33.045-3.873"/>
							<path style="fill:none;stroke:#93B3C9;stroke-width:0.7;stroke-miterlimit:10;" d="M152.519,342.067
								c8.553,11.485,22.343,18.902,36.64,19.706"/>
						</g>
					</g>
				</g>
				<g>
					<rect x="199.04" y="120.846" style="fill:#FEC3B9;" width="12.41" height="18.493"/>
					<path style="fill:#FEC3B9;" d="M186.024,107.838c-0.105,6.3,3.075,12.374,7.739,16.602c4.663,4.228,9.992,7.724,16.239,8.427
						c4.112,0.463,7.604-1.624,9.455-4.594c1.851-2.97,2.149-6.642,2.035-10.141c-0.009-0.212-0.021-0.415-0.03-0.628
						c-0.101-2.216-0.367-4.451-0.828-6.623c-0.96-4.563-2.806-8.897-5.844-12.386c-4.644-5.314-12.497-8.173-19.052-5.577
						C189.887,95.242,186.127,101.548,186.024,107.838z"/>
					<g>
						<path style="fill:#060006;" d="M218.044,111.829c0.164-0.686-0.259-1.375-0.945-1.54c-0.686-0.164-1.376,0.259-1.54,0.945
							c-0.164,0.686,0.259,1.376,0.945,1.54C217.19,112.939,217.88,112.516,218.044,111.829z"/>
						<path style="fill:#060006;" d="M207.063,114.958c0.164-0.686-0.259-1.375-0.945-1.54c-0.686-0.164-1.376,0.259-1.54,0.945
							c-0.164,0.686,0.259,1.376,0.945,1.54C206.209,116.067,206.898,115.644,207.063,114.958z"/>
						<path style="fill:#F28F7E;" d="M206.949,120.688c0.446-1.864-0.704-3.737-2.568-4.183s-3.737,0.704-4.183,2.568
							c-0.446,1.864,0.704,3.737,2.568,4.183C204.63,123.702,206.503,122.552,206.949,120.688z"/>
						<path style="fill:#F28F7E;" d="M218.599,113.277c-0.446,1.865,0.699,3.73,2.564,4.176c0.104,0.025,0.199,0.048,0.298,0.051
							c-0.101-2.216-0.367-4.451-0.828-6.623C219.656,111.288,218.869,112.151,218.599,113.277z"/>
						<path style="fill:#383838;" d="M214.331,107.316c-0.332,0.039-0.702-0.043-0.911-0.304c-0.252-0.313-0.189-0.798,0.055-1.117
							c0.243-0.32,0.626-0.503,1.008-0.626c0.883-0.286,1.896-0.3,2.699,0.166c0.378,0.22,0.726,0.639,0.596,1.057
							c-0.087,0.279-0.37,0.565-0.657,0.514C215.937,106.793,214.663,107.277,214.331,107.316z"/>
						<path style="fill:#383838;" d="M207.297,109.018c0.31-0.126,0.594-0.375,0.652-0.705c0.07-0.396-0.218-0.79-0.585-0.953
							c-0.367-0.163-0.79-0.14-1.185-0.064c-0.912,0.175-1.806,0.649-2.286,1.444c-0.226,0.375-0.329,0.91-0.014,1.213
							c0.211,0.203,0.596,0.318,0.824,0.134C205.638,109.332,206.987,109.144,207.297,109.018z"/>
						<path style="fill:#FFFFFF;" d="M210.567,123.064c3.117-0.074,6.49-0.238,8.899-2.217c-0.158,1.499-0.333,3.048-1.091,4.351
							c-0.758,1.303-2.27,2.294-3.74,1.962c-0.984-0.222-1.751-0.967-2.464-1.681C211.714,125.022,211.258,124.565,210.567,123.064z
							"/>
						<path style="fill:#F28F7E;" d="M212.554,111.07c0.039,0.959,0.082,1.936,0.404,2.84c0.323,0.904,0.974,1.742,1.885,2.047
							c0.518,0.174,1.097,0.171,1.571,0.443c0.728,0.418,0.983,1.412,0.726,2.211c-0.256,0.799-0.921,1.41-1.655,1.817
							c-0.742,0.411-1.718,0.628-2.402,0.127c-0.553-0.404-0.731-1.138-0.846-1.813C211.823,116.311,211.728,113.824,212.554,111.07
							z"/>
					</g>
					<g>
						<path style="fill:#383838;" d="M211.684,95.492c1.474-4.549-20.71-10.213-26.794,8.379c-1.144,3.495-1.569,7.469-4.15,10.088
							c-2.605,2.644-6.65,3.122-9.932,4.856c-4.507,2.381-7.49,7.399-7.427,12.497c0.07,5.662,3.557,10.95,3.188,16.601
							c-0.271,4.158-2.614,7.966-2.898,12.122c-0.337,4.93,2.573,9.926,7.027,12.066c4.939,2.372,10.911,1.229,15.837-1.171
							c6.569-3.201,12.095-8.624,15.095-15.287c3-6.663,3.373-14.536,0.686-21.331c-1.125-2.845-2.751-5.475-3.821-8.341
							c-1.071-2.866-1.546-6.141-0.32-8.944c1.299-2.967,4.264-4.907,5.752-7.784c1.293-2.501,1.343-5.449,2.21-8.127
							C207.007,98.436,209.312,95.759,211.684,95.492z"/>
						<path style="fill:none;stroke:#383838;stroke-miterlimit:10;" d="M180.79,115.189c-4.966,3.58-12.404,2.887-16.64,7.306
							c-2.16,2.253-3.05,5.524-2.856,8.639c0.194,3.115,1.379,6.096,2.907,8.818c1.456,2.592,3.289,5.174,3.378,8.145
							c0.07,2.342-0.973,4.57-2.162,6.589s-2.563,3.968-3.273,6.201c-0.71,2.233-0.636,4.886,0.88,6.673"/>
					</g>
					<g>
						<path style="fill:#FEC3B9;" d="M192.716,122.51c-0.98-1.914-0.32-4.21,1.474-5.129c1.794-0.919,4.043-0.112,5.023,1.802
							c0.98,1.914,0.32,4.21-1.474,5.129C195.945,125.23,193.696,124.424,192.716,122.51z"/>
						<g>
							<path style="fill:none;stroke:#F28F7E;stroke-width:0.6;stroke-miterlimit:10;" d="M194.273,118.982
								c1.389,1.119,2.517,2.559,3.271,4.175"/>
							<path style="fill:none;stroke:#F28F7E;stroke-width:0.6;stroke-miterlimit:10;" d="M193.744,121.347
								c1.001-0.203,2.064-0.093,3.002,0.312"/>
						</g>
					</g>
				</g>
				<g>
					<g>
						<g>
							<path style="fill:#FEC3B9;" d="M265.184,208.072c3.229,3.567,7.324,6.214,11.023,9.291c3.699,3.077,7.145,6.829,8.067,11.824
								c-3.395,2.458-6.265,2.96-10.648,2.577c-2.876-2.518-6.45-5.378-6.965-9.166c-0.176-1.29-0.704-2.43-1.32-3.277
								c-1.526-2.096-3.06-3.148-5.412-4.705L265.184,208.072z"/>
							<path style="fill:#FEC3B9;" d="M281.63,223.022c2.247,3.572,3.884,7.527,4.818,11.642c0.223,0.98,0.404,2.012,0.135,2.98
								c-0.159,0.572-0.586,1.166-1.179,1.157c-0.381-0.005-0.719-0.27-0.921-0.593c-0.201-0.323-0.29-0.702-0.381-1.072
								c-1.072-4.351-2.871-8.522-5.3-12.288C279.505,224.167,280.366,223.65,281.63,223.022z"/>
							<path style="fill:#FEC3B9;" d="M281.026,227.16c1.399,3.981,2.117,8.201,2.115,12.421c-0.001,1.005-0.052,2.051-0.53,2.936
								c-0.282,0.522-0.83,1.007-1.406,0.867c-0.37-0.09-0.642-0.423-0.766-0.783s-0.127-0.749-0.134-1.13
								c-0.08-4.48-0.908-8.947-2.44-13.158C278.7,227.805,279.654,227.492,281.026,227.16z"/>
							<path style="fill:#FEC3B9;" d="M278.216,226.505c1.399,3.981,2.117,8.201,2.115,12.421c-0.001,1.005-0.052,2.051-0.53,2.936
								c-0.282,0.522-0.83,1.007-1.406,0.867c-0.37-0.09-0.642-0.423-0.766-0.783c-0.124-0.36-0.127-0.749-0.134-1.13
								c-0.08-4.48-0.908-8.947-2.44-13.158C275.891,227.15,276.844,226.836,278.216,226.505z"/>
							<path style="fill:#FEC3B9;" d="M275.617,225.789c0.805,3.731,0.973,7.598,0.494,11.385c-0.114,0.902-0.279,1.835-0.807,2.575
								c-0.312,0.437-0.858,0.81-1.36,0.619c-0.322-0.122-0.528-0.452-0.599-0.789c-0.071-0.337-0.029-0.686,0.008-1.029
								c0.434-4.03,0.196-8.131-0.704-12.083C273.457,226.105,274.348,225.932,275.617,225.789z"/>
						</g>
						<path style="fill:#0542A2;" d="M272.332,210.516c-1.752,3.893-5.558,10.22-9.071,12.643c-0.535-0.555-1.061-1.119-1.596-1.674
							c-1.976,1.771-4.292,3.105-6.891,3.231c-4.915,0.234-8.877-3.815-11.923-7.68c-10.171-12.867-18.26-27.253-25.803-41.814
							c-3.397-6.56-6.784-13.607-6.2-20.965c0.292-3.728,1.762-7.533,4.73-9.792c2.969-2.268,7.6-2.214,9.256,0.526
							c10.183,16.841,15.982,36.85,32.898,46.914c6.6,3.926,13.777,8.245,11.553,16.021
							C269.393,207.985,272.366,210.503,272.332,210.516z"/>
					</g>
					<g>
						<path style="fill:#FFFFFF;" d="M230.026,204.906c-2.161-1.003-4.711-0.341-6.94,0.526c-2.229,0.857-4.497,1.937-6.881,1.713
							c-1.869-0.165-3.582-1.139-5.421-1.499c-3.864-0.759-7.67,1.168-11.456,2.248c-4.205,1.197-8.701,1.363-14.035-0.331
							c0.847-14.541,1.694-29.112,1.294-43.683c-0.117-4.146-0.331-8.351,0.477-12.429c0.818-4.068,2.793-8.088,6.22-10.444
							c1.392-0.954,2.93-1.538,4.594-1.927c2.9-0.691,6.171-0.769,9.655-1.168c3.358-0.389,6.755,0.681,9.616,2.521
							c0.574,0.37,1.119,0.769,1.645,1.187c3.163,2.55,5.519,5.957,7.553,9.47c1.441,2.501,2.764,5.139,3.173,8.001
							c0.399,2.862-0.243,5.996-2.307,8.186C228.81,179.785,229.871,192.36,230.026,204.906z"/>
						<path style="fill:#FEC3B9;" d="M217.149,140.434c-0.175,0.779-0.652,1.509-1.275,2.005c-1.08,0.857-2.511,1.168-3.883,1.285
							c-5.071,0.467-10.288-1.285-14.113-4.643c2.9-0.691,6.171-0.769,9.655-1.168C210.891,137.524,214.288,138.594,217.149,140.434
							z"/>
					</g>
					<g>
						<g>
							<path style="fill:#FEC3B9;" d="M162.186,233.868c-1.618,4.979-4.692,9.475-8.743,12.791
								c-1.829,1.497-3.985,2.944-4.604,5.225c-0.495,1.822,0.128,3.739,0.744,5.523c0.508,1.472,1.072,3.024,2.286,4
								c1.369,1.1,3.328,1.223,5.012,0.728c3.274-0.964,5.606-3.946,6.856-7.121c1.25-3.176,1.626-6.615,2.353-9.949
								c0.722-3.312,1.797-6.546,3.202-9.631L162.186,233.868z"/>
							<path style="fill:#0653CF;" d="M204.66,155.154c1.503-7.846-5.186-15.008-13.014-13.412c-0.495,0.101-0.94,0.231-1.317,0.391
								c-3.013,1.277-5.309,3.811-7.211,6.473c-10.96,15.344-11.516,36.063-21.413,52.113c-3.473,5.631-8.092,10.688-10.158,16.973
								c-2.065,6.285-0.461,14.56,5.624,17.157c0.008,1.86-0.204,2.835-0.233,4.925c7.667,1.144,5.561,1.682,13.228,2.826
								c0.423-1.475,0.847-2.949,1.362-4.369c4.025,0.301,9.031-1.805,10.857-5.405c1.826-3.6,2.085-7.747,2.666-11.741
								C190.043,186.815,203.503,161.197,204.66,155.154z"/>
						</g>
						<g>
							<path style="fill:#0653CF;" d="M197.496,137.933c-6.877,0.848-12.068,7.02-14.237,13.602
								c-2.168,6.581-2.007,13.661-2.485,20.574c-0.678,9.796-2.69,19.499-5.965,28.756c-1.212,3.426-2.61,6.86-2.83,10.487
								c-0.219,3.627,0.989,7.585,4.004,9.613c-0.451,0.644-0.083,1.598,0.564,2.045c0.647,0.447,1.472,0.523,2.256,0.584
								c9.839,0.769,19.684,1.461,29.533,2.075c2.398,0.15,5.067,0.208,6.883-1.366c1.808-1.568,2.133-4.205,2.336-6.59
								c0.766-9.02,1.531-18.118,0.421-27.102c-1.192-9.649-4.524-18.964-5.339-28.652c-0.428-5.092-0.175-10.344-1.893-15.157
								C209.027,141.99,204.516,137.068,197.496,137.933z"/>
							<path style="fill:#91ADDB;" d="M215.038,175.632c-4.274-5.398-8.442-11.023-11.444-17.219
								c-0.263-0.544-0.528-1.12-0.493-1.723c0.122-2.116,3.511-2.695,4.096-4.745c-1.792-0.233-3.585-0.467-5.377-0.7
								c-0.685-0.089-1.433-0.211-1.889-0.73c-0.679-0.774-0.357-1.956-0.14-2.963c0.734-3.392-0.24-7.164-2.62-9.56
								c-0.146-1.21,5.79-0.577,9.12,2.231c2.675,2.256,4.641,6.035,5.437,9.443c0.796,3.407,0.932,6.928,1.166,10.42
								C213.248,165.372,213.469,168.418,215.038,175.632z"/>
						</g>
						<g>
							<path style="fill:none;stroke:#0541A1;stroke-width:0.7;stroke-miterlimit:10;" d="M202.333,161.094
								c-7.374,19.383-14.814,39.034-17.002,59.657c-0.316,2.977-0.525,5.992-1.384,8.86c-0.858,2.868-2.45,5.633-4.961,7.263"/>
							<path style="fill:none;stroke:#0541A1;stroke-width:0.7;stroke-miterlimit:10;" d="M153.192,231.942
								c5.843,4.13,12.973,6.41,20.128,6.435"/>
							<path style="fill:none;stroke:#0541A1;stroke-width:0.7;stroke-miterlimit:10;" d="M185.59,219.949
								c9.954,1.354,21.221,2.001,31.266,1.933"/>
							<path style="fill:none;stroke:#0541A1;stroke-width:0.7;stroke-miterlimit:10;" d="M212.015,225.555
								c2.593-15.022,2.853-30.445,0.767-45.546"/>
						</g>
					</g>
				</g>
			</g>
			<g>
				<path style="fill:#A7C2FF;" d="M54.463,377.574l40.274-84.05c2.351-4.907,8.235-6.979,13.142-4.628l26.118,12.515
					c4.907,2.351,6.979,8.235,4.628,13.142l-40.274,84.05c-2.351,4.907-8.235,6.979-13.142,4.628L59.09,390.717
					C54.183,388.366,52.112,382.482,54.463,377.574z"/>
				<path style="fill:none;stroke:#383838;stroke-width:2;stroke-miterlimit:10;" d="M101.452,336.118
					c-1.259-0.547-3.205-1.241-5.222,0.245c-1.019,0.751-1.505,1.996-2.035,3.131c-1.499,3.212-2.902,5.661-4.401,8.873
					c-0.57,1.222-1.152,2.51-1.018,3.888c0.135,1.378,1.452,3.374,3.065,3.918"/>
				<path style="fill:none;stroke:#5E79B8;stroke-miterlimit:10;" d="M120.926,295.18c-15.855,34.115-32.909,67.655-48.765,101.769"
					/>
				<g>
					
						<rect x="101.008" y="329.524" transform="matrix(0.9018 0.4321 -0.4321 0.9018 153.4429 -12.364)" style="fill:#FFFFFF;" width="5.84" height="3.893"/>
					
						<rect x="86.876" y="359.017" transform="matrix(0.9018 0.4321 -0.4321 0.9018 164.7967 -3.3618)" style="fill:#FFFFFF;" width="5.84" height="3.893"/>
				</g>
				<path style="fill:#383838;" d="M74.29,403.267c1.14-2.38,3.994-3.384,6.373-2.244c2.38,1.14,3.384,3.994,2.244,6.373
					c-1.14,2.38-3.994,3.384-6.373,2.244C74.155,408.5,73.15,405.647,74.29,403.267z"/>
				<g>
					<polygon style="fill:#5D78B7;" points="127.673,298.413 148.775,258.478 152.286,260.161 131.184,300.095 					"/>
					<path style="fill:#383838;" d="M147.988,254.691c1.024-2.138,3.589-3.041,5.727-2.016c2.138,1.024,3.041,3.589,2.016,5.727
						c-1.025,2.138-3.588,3.041-5.727,2.016C147.866,259.393,146.964,256.829,147.988,254.691z"/>
				</g>
			</g>
		</g>
	</g>
	<g>
		<ellipse style="fill:#E8EDF7;" cx="406.002" cy="413.53" rx="80.109" ry="10.707"/>
		<g style="opacity:0.3294;">
			<path style="fill:#E8EDF7;" d="M365.846,126.939c-22.297,7.029-40.444,25.973-46.507,48.551
				c-6.064,22.578,0.15,48.065,15.926,65.319c23.428,25.624,64.132,32.25,83.031,61.376c5.386,8.301,8.717,18.115,15.866,24.957
				c12.074,11.555,34.037,10.106,44.487-2.937c8.237-10.28,8.885-24.923,5.65-37.692c-3.235-12.769-9.828-24.385-15.008-36.497
				c-7.514-17.569-12.071-36.235-18.204-54.332c-6.133-18.097-14.107-36.037-27.206-49.949
				C410.781,131.822,390.947,119.027,365.846,126.939z"/>
			<path style="fill:#E8EDF7;" d="M380.184,279.873c-19.984-10.49-42.913,8.06-37.098,29.868c0.733,2.751,1.774,5.419,3.122,7.932
				c5.916,11.034,17.573,18.777,30.038,19.953c7.482,0.706,15.591-1.098,20.779-6.535c6.301-6.604,6.874-17.038,4.216-25.771
				c-3.259-10.706-10.895-20.008-20.76-25.291C380.382,279.977,380.283,279.925,380.184,279.873z"/>
		</g>
		<g>
			<g>
				<g>
					<ellipse style="fill:#F6A157;" cx="419.046" cy="141.621" rx="9.247" ry="13.14"/>
					<rect x="360.647" y="128.481" style="fill:#F6A157;" width="58.399" height="26.28"/>
					<ellipse style="fill:#FFB675;" cx="360.647" cy="141.621" rx="9.247" ry="13.14"/>
				</g>
				<g>
					<path style="fill:#383838;" d="M386.484,145.191c-10.466-3.471-22.237,2.587-28.627,11.573
						c-6.389,8.987-8.527,20.249-10.046,31.17c-1.649,11.852-2.762,23.779-3.334,35.731c-0.232,4.84-0.187,10.224,3.084,13.799
						c3.011,3.291,7.84,4.023,12.274,4.507c10.321,1.126,20.672,1.973,31.039,2.537c3.86,0.21,7.995,0.314,11.269-1.741
						c5.179-3.251,6.041-10.327,6.204-16.439c0.355-13.304-0.069-26.629-1.269-39.884c-0.728-8.049-1.767-16.173-4.717-23.698
						C399.411,155.221,394.497,147.849,386.484,145.191z"/>
					<g>
						<path style="fill:none;stroke:#525252;stroke-width:0.7;stroke-miterlimit:10;" d="M374.805,145.235
							c-7.05,2.388-13.741,15.719-15.236,24.103c-0.518,2.905-0.898,5.918-2.429,8.441c-1.827,3.012-5.114,2.685-8.037,2.221"/>
						<path style="fill:none;stroke:#525252;stroke-width:0.7;stroke-miterlimit:10;" d="M352.639,180.402
							c-3.903,19.027-5.244,38.577-3.976,57.958"/>
						<path style="fill:none;stroke:#525252;stroke-width:0.7;stroke-miterlimit:10;" d="M349.43,200.77
							c5.039,1.74,9.921,2.331,15.249,2.131l-0.988,19.272c-0.223,4.347-4.207,7.514-8.492,6.751l-6.998-1.247"/>
					</g>
				</g>
			</g>
			<g>
				<path style="fill:#FDC653;" d="M403.574,143.441c5.893-1.388,12.109,1.986,15.737,6.833c3.628,4.847,5.165,10.911,6.372,16.844
					c1.356,6.666,2.4,13.396,3.128,20.159l-24.27-0.201L403.574,143.441z"/>
				<path style="fill:#383838;" d="M402.575,141.851c3.541-0.246,7.082,1.073,9.915,3.211c2.833,2.138,5.009,5.049,6.719,8.16
					c6.678,12.149,6.146,27.93-1.333,39.602C420.715,174.876,414.509,155.727,402.575,141.851z"/>
			</g>
			<g>
				<g>
					<path style="fill:#FEC3B9;" d="M420.754,250.069c1.152,32.587-4.154,90.093-2.561,135.143c0,0-11.482-0.427-11.278-1.021
						c-11.462-60.138-0.194-64.565-6.835-135.993L420.754,250.069z"/>
					<g>
						<path style="fill:#4D4D4D;" d="M419.787,396.095c-0.452-2.162,0.164-4.411,1.06-6.43c0.896-2.019,2.075-3.911,2.844-5.981
							c0.346-0.932,0.572-2.081-0.071-2.839c-0.552-0.649-1.508-0.729-2.359-0.76c-0.714-0.026-1.482-0.037-2.074,0.363
							c-0.698,0.473-0.943,1.374-1.095,2.204C417.267,387.15,417.655,391.864,419.787,396.095z"/>
						<path style="fill:#525252;" d="M404.248,409.118c-0.735,0.448-1.339,3.725,0.708,4.406c2.617,0.87,2.425-0.719,4.056-0.473
							c1.377,0.207,2.377,0.965,3.76,0.804c1.14-0.132,2.075-1.039,3.217-1.157c1.75-0.18,3.275,1.532,5.024,1.347
							c1.466-0.155,2.686-1.624,4.133-1.343c1.025,0.199,1.759,1.243,2.801,1.315c1.199,0.083,2.115-1.147,3.308-1.286
							c1.735-0.203,3.144,1.934,4.858,1.601c1.09-0.212,1.827-1.378,2.933-1.485c1.381-0.134,2.374,1.423,3.748,1.617
							c0.988,0.139,1.969-0.502,2.458-1.362c0.489-0.86,0.565-1.891,0.52-2.882c-0.02-0.02-0.04-0.04-0.061-0.061L404.248,409.118z"
							/>
						<g>
							<polygon style="fill:#525252;" points="408.897,379.467 414.789,379.616 415.714,387.861 410.605,388.442 							"/>
							<path style="fill:#383838;" d="M402.575,377.874c0.992,5.75,3.446,13.93,1.93,19.083c-1.075,3.651-2.442,7.912-0.923,13.978
								c14.022,0.085,26.907,0.163,42.234,0.256c1.035-2.834,0.789-3.518-0.054-6.415c-2.094-7.194-18.419-4.905-24.165-9.22
								c-0.812-1.664-1.556-5.438-1.517-7.288c0.076-3.562,0.207-6.153,0.587-10.796
								C415.334,377.973,402.575,377.874,402.575,377.874z"/>
						</g>
						<path style="fill:none;stroke:#525252;stroke-width:0.7;stroke-miterlimit:10;" d="M421.406,382.267
							c0.096,3.692,0.526,7.505,2.378,10.699c0.327,0.563,0.934,1.179,1.524,0.904c0.485-0.226,0.544-0.884,0.496-1.416
							c-0.303-3.328-2.052-6.341-3.966-9.08c0.995,2.411,2.428,4.641,4.21,6.546c0.288,0.309,0.597,0.616,0.986,0.78
							s0.881,0.153,1.191-0.134c0.429-0.397,0.337-1.092,0.162-1.65C427.435,385.868,424.979,383.331,421.406,382.267z"/>
						<path style="fill:none;stroke:#525252;stroke-width:0.7;stroke-miterlimit:10;" d="M417.031,392.977
							c1.437,0.603,3.03,0.829,4.578,0.651"/>
						<path style="fill:none;stroke:#525252;stroke-width:0.7;stroke-miterlimit:10;" d="M416.779,389.812
							c1.437,0.603,3.03,0.83,4.578,0.651"/>
						<path style="fill:none;stroke:#525252;stroke-width:0.7;stroke-miterlimit:10;" d="M416.798,386.649
							c1.437,0.603,3.03,0.829,4.578,0.651"/>
						<path style="fill:none;stroke:#525252;stroke-width:0.7;stroke-miterlimit:10;" d="M416.817,383.486
							c1.437,0.603,3.03,0.83,4.578,0.651"/>
					</g>
				</g>
				<g>
					<path style="fill:#FEC3B9;" d="M396.149,249.167c-1.463,32.575-11.359,89.471-13.381,134.503c0,0-11.411-1.345-11.16-1.921
						c-6.606-60.863,4.98-64.373,4.083-136.104L396.149,249.167z"/>
					<g>
						<path style="fill:#4D4D4D;" d="M383.716,397.086c-0.431-2.166,0.206-4.41,1.121-6.42s2.112-3.891,2.9-5.954
							c0.355-0.929,0.592-2.075-0.044-2.839c-0.545-0.655-1.501-0.743-2.352-0.782c-0.714-0.033-1.482-0.051-2.077,0.343
							c-0.703,0.466-0.956,1.365-1.116,2.193C381.28,388.118,381.624,392.836,383.716,397.086z"/>
						<path style="fill:#525252;" d="M368.054,409.962c-0.739,0.441-1.374,3.713,0.667,4.412c2.609,0.894,2.431-0.696,4.06-0.435
							c1.375,0.22,2.368,0.988,3.752,0.84c1.141-0.122,2.085-1.02,3.228-1.126c1.751-0.163,3.26,1.563,5.011,1.394
							c1.468-0.141,2.701-1.598,4.146-1.304c1.023,0.209,1.747,1.259,2.788,1.342c1.198,0.095,2.125-1.127,3.32-1.255
							c1.737-0.186,3.126,1.963,4.843,1.647c1.092-0.201,1.84-1.361,2.947-1.458c1.382-0.121,2.361,1.446,3.732,1.652
							c0.987,0.148,1.973-0.483,2.47-1.338c0.497-0.855,0.583-1.886,0.548-2.877c-0.02-0.02-0.04-0.041-0.06-0.061L368.054,409.962z
							"/>
						<g>
							<polygon style="fill:#525252;" points="372.984,380.357 378.874,380.56 379.721,388.815 374.607,389.347 							"/>
							<path style="fill:#383838;" d="M366.678,378.704c0.937,5.759,3.314,13.962,1.749,19.101
								c-1.109,3.641-2.517,7.888-1.055,13.969c14.021,0.218,26.904,0.417,42.23,0.655c1.062-2.824,0.822-3.51,0.007-6.415
								c-2.026-7.213-18.372-5.079-24.077-9.448c-0.796-1.671-1.505-5.452-1.448-7.302c0.109-3.561,0.265-6.151,0.689-10.79
								C379.435,378.923,366.678,378.704,366.678,378.704z"/>
						</g>
						<path style="fill:none;stroke:#525252;stroke-width:0.7;stroke-miterlimit:10;" d="M385.466,383.274
							c0.061,3.692,0.455,7.509,2.277,10.721c0.321,0.567,0.922,1.188,1.515,0.919c0.487-0.221,0.552-0.879,0.509-1.412
							c-0.272-3.33-1.992-6.36-3.88-9.117c0.972,2.421,2.384,4.663,4.148,6.586c0.285,0.311,0.591,0.622,0.978,0.789
							s0.879,0.161,1.192-0.122c0.433-0.393,0.347-1.089,0.178-1.648C391.461,386.932,389.029,384.372,385.466,383.274z"/>
						<path style="fill:none;stroke:#525252;stroke-width:0.7;stroke-miterlimit:10;" d="M380.99,393.943
							c1.431,0.617,3.022,0.858,4.571,0.695"/>
						<path style="fill:none;stroke:#525252;stroke-width:0.7;stroke-miterlimit:10;" d="M380.768,390.776
							c1.431,0.617,3.022,0.858,4.571,0.695"/>
						<path style="fill:none;stroke:#525252;stroke-width:0.7;stroke-miterlimit:10;" d="M380.817,387.613
							c1.431,0.617,3.022,0.858,4.571,0.695"/>
						<path style="fill:none;stroke:#525252;stroke-width:0.7;stroke-miterlimit:10;" d="M380.866,384.45
							c1.431,0.617,3.022,0.858,4.571,0.695"/>
					</g>
				</g>
				<g>
					<path style="fill:#F6A157;" d="M427.446,275.732c-10.529,6.567-23.869,8.311-35.818,5.027
						c-0.701-27.007-1.039-54.052-0.99-81.543l28.193,2.907C422.206,226.555,425.098,251.077,427.446,275.732z"/>
					<path style="fill:#F6A157;" d="M403.851,284.186c-12.822,0.797-26.701,0.387-36.251-6.531
						c1.06-23.912,2.446-48.557,9.625-79.828l32.021,3.303C407.658,227.089,405.689,266.383,403.851,284.186z"/>
					<g>
						<path style="fill:none;stroke:#BF7D43;stroke-width:0.7;stroke-miterlimit:10;" d="M409.022,212.239
							c-2.579,24.972-2.861,49.385-5.082,70.895"/>
						<path style="fill:none;stroke:#BF7D43;stroke-width:0.7;stroke-miterlimit:10;" d="M408.055,228.243
							c1.393,0.215,2.751-0.761,3.43-1.995c0.68-1.235,0.828-2.682,0.964-4.085c0.638-6.608,1.276-13.217,1.913-19.825"/>
						<path style="fill:none;stroke:#BF7D43;stroke-width:0.7;stroke-miterlimit:10;" d="M383.697,283.215
							c1.297-25.05,4.589-49.997,9.836-74.525"/>
						<path style="fill:none;stroke:#BF7D43;stroke-width:0.7;stroke-miterlimit:10;" d="M388.695,235.619
							c2.275,0.731,4.82-0.473,6.336-2.319c1.517-1.847,2.214-4.217,2.808-6.531c1.551-6.045,2.65-12.206,3.282-18.414"/>
						<path style="fill:none;stroke:#BF7D43;stroke-width:0.7;stroke-miterlimit:10;" d="M370.151,244.628
							c2.066,0.465,4.241-0.645,5.59-2.278c1.349-1.633,2.021-3.71,2.573-5.755c1.982-7.344,2.78-14.948,3.571-22.514"/>
					</g>
				</g>
			</g>
			<g>
				<g>
					<path style="fill:#FFFFFF;" d="M424.835,220.684c-2.9,1.441-10.716,6.414-26.542,4.01c-14.785-2.239-21.111,1.655-29.355-2.823
						c0.594-10.288,2.336-19.895,3.533-29.638c0.02-0.175,0.039-0.35,0.068-0.516c0.749-6.327,1.275-12.712,1.09-19.389
						c-0.136-4.886-0.389-9.85,0.555-14.658c0.652-3.222,1.918-6.424,3.932-9.013c0.944-1.255,2.093-2.375,3.407-3.29
						c1.635-1.129,3.455-1.82,5.412-2.278c0.789-0.185,1.606-0.341,2.443-0.467c2.774-0.409,5.781-0.545,8.935-0.905
						c3.961-0.467,7.971,0.798,11.339,2.968c0.681,0.438,1.324,0.905,1.937,1.402c3.728,3.007,6.19,7.679,7.933,12.137
						C423.258,167.774,421.097,194.774,424.835,220.684z"/>
					<path style="fill:#FEC3B9;" d="M409.651,144.687c-0.204,0.915-0.769,1.781-1.499,2.365c-1.275,1.012-2.959,1.372-4.584,1.509
						c-4.613,0.428-9.324-0.701-13.305-3.066c-1.178-0.691-2.297-1.499-3.329-2.404c0.789-0.185,1.606-0.341,2.443-0.467
						c2.774-0.409,5.781-0.545,8.935-0.905C402.273,141.251,406.283,142.516,409.651,144.687z"/>
				</g>
				<path style="fill:#383838;" d="M392.871,161.175c0.209,16.04-11.073,30.596-20.938,35.682
					c-0.321,0.165,8.626-11.915,9.025-27.671c0.175-6.93-1.178-13.773-2.842-20.527c0.944-1.255,2.093-2.375,3.407-3.29
					c1.635-1.129,3.455-1.82,5.412-2.278c0.789-0.185,1.606-0.341,2.443-0.467c0.311,0.954,0.613,1.908,0.886,2.871
					C391.771,150.614,392.813,155.851,392.871,161.175z"/>
				<g>
					<polygon style="fill:#BDB548;" points="501.592,148.124 489.066,164.223 489.066,164.233 475.838,181.227 475.838,216.675 
						464.343,228.238 447.086,245.592 387.558,245.592 414.412,219.05 416.816,216.675 415.152,181.227 424.904,168.603 
						440.731,148.124 					"/>
					<path style="fill:#D9D277;" d="M486.593,148.124c-0.35,1.012-0.847,1.986-1.421,2.92c-0.642,1.041-1.382,2.034-2.141,2.969
						c-2.093,2.579-4.545,5.09-7.718,6.093c-1.908,0.604-4.01,0.633-5.791,1.548c-3.124,1.606-4.614,5.568-7.894,6.803
						c-3.854,1.45-8.088-1.548-12.157-0.944c-3.319,0.487-5.791,3.231-8.789,4.76c-4.341,2.209-9.87,1.353-13.675-1.606
						c-0.779-0.604-1.489-1.294-2.102-2.063l15.826-20.479H486.593z"/>
					<path style="fill:#D9D277;" d="M438.738,186.61c-1.521,1.348-2.506,3.302-2.617,5.331c-0.111,2.029,0.671,4.104,2.141,5.508
						c1.511,1.443,3.617,2.114,5.695,2.331c1.63,0.171,3.353,0.071,4.783-0.732c1.366-0.766,2.342-2.124,2.843-3.608
						c1.024-3.034,0.004-6.665-2.492-8.672C446.594,184.762,442.133,183.602,438.738,186.61z"/>
					<path style="fill:#D9D277;" d="M464.343,228.238l-17.257,17.354h-34.533c0.156-0.993,0.37-1.966,0.652-2.92
						c0.545-1.869,1.324-3.66,2.355-5.305c2.404-3.806,6.356-6.755,10.823-7.358c3.436-0.467,7.018,0.428,10.356-0.545
						c4.156-1.207,7.037-5.051,10.999-6.813c4.915-2.19,10.94-0.526,14.765,3.29C463.195,226.632,463.827,227.401,464.343,228.238z"
						/>
					<path style="fill:#A7C2FF;" d="M501.592,148.124l-12.527,16.099v0.01c-1.81,1.421-3.708,2.725-5.704,3.903
						c-0.603,0.36-1.217,0.701-1.84,1.032c-3.105,1.684-6.327,3.154-9.276,5.09c-2.832,1.859-5.46,4.253-7.027,7.212
						c-0.399,0.74-0.73,1.509-0.983,2.316c-1.343,4.283-0.321,8.886,0.146,13.344c0.467,4.458,0.165,9.5-3.056,12.614
						c-3.864,3.718-10.142,3.115-14.921,5.529c-1.441,0.73-2.706,1.713-3.922,2.774c-1.947,1.703-3.757,3.611-5.937,5.003
						c-4.166,2.667-9.295,3.222-13.948,4.905c-7.086,2.56-13.004,8.02-16.41,14.717c-0.496,0.944-0.925,1.927-1.304,2.92h-17.325
						l26.854-26.542c1.674-0.428,3.358-0.73,5.052-0.886c2.307-0.214,4.643-0.156,6.979,0.273c0.068,0.01,0.127,0.02,0.195,0.039
						c2.132,0.399,4.38,1.041,6.375,0.204c0.263-0.107,0.496-0.243,0.73-0.399h0.01c1.918-1.217,2.852-3.669,3.65-5.879
						c0.711-1.947,1.479-3.913,2.356-5.811c1.333-2.949,2.92-5.762,4.915-8.244v-0.01c1.197-1.528,2.55-2.92,4.088-4.146
						c1.528-1.217,3.29-2.326,4.098-4.107c1.158-2.55-0.039-5.48-0.136-8.302c-0.01-0.146-0.01-0.302-0.01-0.448
						c0.039-4.516,3.465-8.371,7.368-10.638c3.903-2.268,8.361-3.387,12.478-5.236c6.706-3.027,12.381-8.166,16.274-14.415
						c0.594-0.944,1.139-1.917,1.645-2.92H501.592z"/>
					<path style="fill:#BDB548;" d="M443.191,211.755c1.466-2.151,4.172-3.023,6.699-3.646c2.527-0.623,5.239-1.224,7.047-3.097
						c1.803-1.867,2.313-4.595,2.742-7.156c0.129-0.77,0.221-1.669-0.325-2.228c-0.727-0.745-1.987-0.327-2.871,0.223
						c-2.013,1.251-3.704,2.947-5.376,4.627c-2.448,2.46-4.897,4.921-7.345,7.381c-0.587,0.59-1.192,1.207-1.475,1.991
						C442.005,210.634,442.142,211.635,443.191,211.755z"/>
					<line style="fill:none;stroke:#9E983C;stroke-miterlimit:10;" x1="422.053" y1="182.556" x2="469.699" y2="181.35"/>
					<line style="fill:none;stroke:#9E983C;stroke-miterlimit:10;" x1="423.026" y1="218.569" x2="467.799" y2="217.362"/>
					<path style="fill:#FFFFFF;" d="M440.731,148.124l-15.826,20.479l-9.753,12.624l1.664,35.448l-2.404,2.375l-26.854,26.542
						h59.528l17.257-17.354l11.495-11.563v-35.448l13.228-16.994v-0.01l12.527-16.099H440.731z M481.522,169.167l-7.981,10.269
						l-0.623,0.788v35.244l-10.414,10.473l-16.634,16.731h-51.206l24.206-23.924l0.594-0.584l0.331-0.331l-0.058-1.294
						l-1.616-34.378l8.886-11.495l15.155-19.622h53.455L481.522,169.167z"/>
				</g>
				<g>
					<path style="fill:#FEC3B9;" d="M365.067,176.715c-2.219,10.081-3.918,18.628-5.472,28.092
						c-0.297,1.808-0.521,3.821,0.514,5.333c1.535,2.242,4.824,2.118,7.516,1.75c14.984-2.053,29.968-4.107,44.951-6.16
						c0,0-1.458-8.574-1.555-8.523c-7.555-1.035-15.109-2.069-22.663-3.104c-4.443-0.609-9.45-1.073-12.948,1.734l4.294-15.942
						L365.067,176.715z"/>
					<g>
						<path style="fill:#FEC3B9;" d="M410.27,196.159c3.909-2.805,8.407-5.197,13.473-4.832c1.524,3.904,1.288,6.808-0.186,10.953
							c-3.161,2.15-6.828,4.889-10.624,4.435c-1.293-0.155-2.582-0.557-3.519-1.027C407.046,204.499,406.361,198.964,410.27,196.159
							z"/>
						<path style="fill:#FEC3B9;" d="M417.112,192.334c4.022-1.276,8.262-1.865,12.48-1.734c1.005,0.031,2.049,0.115,2.918,0.619
							c0.513,0.298,0.981,0.86,0.823,1.432c-0.101,0.367-0.442,0.628-0.806,0.742c-0.364,0.113-0.752,0.104-1.133,0.099
							c-4.481-0.057-8.97,0.634-13.227,2.037C417.685,194.678,417.401,193.716,417.112,192.334z"/>
						<path style="fill:#FEC3B9;" d="M420.965,193.96c4.205-0.352,8.47,0.015,12.553,1.079c0.973,0.253,1.972,0.567,2.708,1.252
							c0.434,0.404,0.766,1.056,0.485,1.579c-0.18,0.336-0.571,0.514-0.95,0.544c-0.38,0.03-0.757-0.066-1.127-0.155
							c-4.356-1.05-8.887-1.372-13.349-0.949C421.004,196.373,420.94,195.372,420.965,193.96z"/>
						<path style="fill:#FEC3B9;" d="M419.624,196.514c4.205-0.352,8.47,0.015,12.553,1.079c0.973,0.253,1.972,0.567,2.708,1.252
							c0.434,0.404,0.766,1.056,0.485,1.579c-0.18,0.336-0.571,0.514-0.95,0.544c-0.38,0.03-0.757-0.066-1.127-0.155
							c-4.356-1.05-8.888-1.373-13.349-0.949C419.662,198.927,419.599,197.926,419.624,196.514z"/>
						<path style="fill:#FEC3B9;" d="M418.277,198.85c3.813,0.159,7.599,0.97,11.143,2.386c0.844,0.337,1.706,0.732,2.289,1.429
							c0.344,0.412,0.568,1.034,0.257,1.472c-0.2,0.281-0.57,0.397-0.914,0.381c-0.344-0.016-0.672-0.144-0.994-0.266
							c-3.791-1.435-7.82-2.236-11.871-2.36C418.039,201.02,418.095,200.114,418.277,198.85z"/>
					</g>
				</g>
				<path style="fill:#FEC3B9;" d="M404.323,126.085l-1.343,9.49l-0.876,6.181l-0.37,2.638l-12.283-1.742l1.518-10.716l1.071-7.592
					l1.187,0.166c0,0,0,0,0.01,0L404.323,126.085z"/>
				<path style="opacity:0.6706;fill:#F28F7E;" d="M402.979,135.575l-0.876,6.181c-1.08,0.896-2.638,1.071-3.961,0.652
					c-1.46-0.467-2.667-1.548-3.63-2.764c-1.781-2.239-2.852-4.896-3.543-7.709l1.071-7.592l1.187,0.166c0,0,0,0,0.01,0
					c4.75,2.19,8.01,6.122,9.626,10.716C402.902,135.341,402.94,135.458,402.979,135.575z"/>
				<path style="fill:#FDC653;" d="M383.789,144.109c-7.695,2.424-13.297,7.333-17.823,14.011
					c-4.526,6.678-7.745,17.428-10.679,24.943c0,0,24.918,6.795,29.93,5.811C385.133,171.2,393.707,152.866,383.789,144.109z"/>
			</g>
			<g>
				<path style="fill:#FEC3B9;" d="M391.215,103.27c-4.024,4.848-5.343,11.577-4.35,17.793c0.993,6.215,2.962,12.277,7.395,16.734
					c2.918,2.934,6.948,3.49,10.25,2.332c3.302-1.159,5.832-3.837,7.933-6.638c0.126-0.171,0.244-0.337,0.369-0.508
					c1.308-1.791,2.499-3.702,3.498-5.685c2.106-4.16,3.378-8.696,3.19-13.319c-0.298-7.051-4.635-14.194-11.373-16.271
					C402.11,95.861,395.231,98.428,391.215,103.27z"/>
				<path style="fill:#383838;" d="M413.697,126.417c0.557-0.433,0.658-1.235,0.226-1.793c-0.433-0.557-1.235-0.658-1.792-0.226
					c-0.557,0.433-0.659,1.235-0.226,1.793C412.337,126.748,413.139,126.85,413.697,126.417z"/>
				<path style="fill:#383838;" d="M403.173,121.987c0.557-0.433,0.658-1.235,0.226-1.793c-0.433-0.557-1.235-0.658-1.792-0.226
					c-0.557,0.433-0.659,1.235-0.226,1.792C401.813,122.318,402.616,122.42,403.173,121.987z"/>
				<path style="fill:#F28F7E;" d="M399.499,126.386c1.514-1.175,1.789-3.356,0.614-4.87c-1.175-1.514-3.356-1.789-4.87-0.614
					c-1.514,1.175-1.789,3.356-0.613,4.87C395.805,127.287,397.985,127.561,399.499,126.386z"/>
				<path style="fill:#F28F7E;" d="M413.224,127.894c-1.515,1.176-1.788,3.347-0.613,4.862c0.066,0.084,0.125,0.161,0.2,0.226
					c1.308-1.791,2.499-3.702,3.498-5.685C415.293,127.003,414.139,127.184,413.224,127.894z"/>
				<path style="fill:#383838;" d="M389.787,131.443c-4.377-4.765-5.678-11.794-4.585-18.171c1.093-6.377,4.318-12.199,8.055-17.48
					c0.744-1.051,1.549-2.121,2.686-2.727c1.137-0.605,2.699-0.607,3.605,0.448c1.562-1.341,3.861-1.513,5.855-0.998
					c1.993,0.515,3.773,1.62,5.566,2.631c6.813,3.839,14.292,6.493,22.002,7.808c2.137,0.364,4.549,0.78,5.767,2.573
					c1.268,1.867,0.568,4.597-1.117,6.1c-1.684,1.503-4.075,1.968-6.331,1.888c0.243,1.553-1.168,2.864-2.573,3.569
					c-5.188,2.603-11.677,1.117-16.43-2.214c-4.753-3.331-8.136-8.228-11.407-13.023c0.83,2.658-0.76,5.233-2.363,7.504
					c-1.017,1.441-1.323,6.789-5.436,7.118C390.244,120.878,390.394,125.947,389.787,131.443z"/>
				<path style="fill:#383838;" d="M413.625,120.573c-0.283-0.177-0.52-0.473-0.521-0.807c0-0.402,0.352-0.74,0.742-0.837
					c0.39-0.097,0.803-0.001,1.178,0.142c0.868,0.33,1.667,0.952,2.002,1.818c0.158,0.408,0.167,0.953-0.196,1.197
					c-0.242,0.164-0.642,0.21-0.834-0.01C415.204,121.169,413.908,120.75,413.625,120.573z"/>
				<path style="fill:#383838;" d="M407.072,117.5c0.32,0.096,0.699,0.079,0.95-0.141c0.302-0.265,0.324-0.753,0.14-1.11
					c-0.184-0.357-0.529-0.603-0.884-0.791c-0.821-0.434-1.815-0.624-2.687-0.304c-0.411,0.151-0.826,0.504-0.77,0.938
					c0.037,0.29,0.266,0.621,0.558,0.62C405.581,116.707,406.752,117.404,407.072,117.5z"/>
				<g>
					<path style="fill:#FEC3B9;" d="M387.256,118.902c0.433-2.106,2.384-3.485,4.359-3.079c1.974,0.406,3.224,2.442,2.792,4.548
						s-2.384,3.485-4.359,3.079C388.073,123.045,386.823,121.009,387.256,118.902z"/>
					<g>
						<path style="fill:none;stroke:#F28F7E;stroke-width:0.6;stroke-miterlimit:10;" d="M390.678,117.125
							c0.384,1.742,0.363,3.571-0.061,5.304"/>
						<path style="fill:none;stroke:#F28F7E;stroke-width:0.6;stroke-miterlimit:10;" d="M388.786,118.638
							c0.908,0.468,1.668,1.219,2.147,2.121"/>
					</g>
				</g>
				<path style="fill:#F28F7E;" d="M412.177,117.787c-1.75,2.597-2.423,5.897-1.83,8.973c0.146,0.755,0.365,1.501,0.387,2.269
					c0.022,0.768-0.186,1.588-0.76,2.099c-0.831,0.741-2.11,0.607-3.183,0.309c-0.765-0.213-1.626-0.609-1.78-1.388
					c-0.087-0.441,0.085-0.888,0.259-1.302C406.893,124.902,409.044,121.281,412.177,117.787z"/>
				<path style="fill:none;stroke:#383838;stroke-width:0.7;stroke-miterlimit:10;" d="M399.706,129.316
					c1.357,1.859,3.151,3.397,5.196,4.453"/>
			</g>
		</g>
	</g>
	<g>
		<ellipse style="fill:#E8EDF7;" cx="604.295" cy="414.321" rx="90.032" ry="10.707"/>
		<g style="opacity:0.3294;">
			<path style="fill:#E8EDF7;" d="M638.353,136.801c-37.324-0.028-72.407,20.653-97.199,48.553
				c-16.622,18.706-29.805,42.155-29.438,67.177c0.29,19.77,9.272,38.956,23.093,53.096c13.821,14.139,32.201,23.398,51.468,27.84
				c22.656,5.223,47.411,3.755,67.828-7.368c17.748-9.669,31.294-26.149,39.277-44.717s10.653-39.128,9.803-59.321
				c-0.806-19.152-4.865-38.544-14.787-54.946C678.477,150.714,662.155,136.819,638.353,136.801z"/>
			<path style="fill:#E8EDF7;" d="M533.529,168.779c11.695-6.78,21.831-16.233,29.409-27.427c3.598-5.315,6.73-11.617,5.51-17.918
				c-1.798-9.281-12.31-14.365-21.76-14.632c-18.047-0.51-35.591,12.58-40.243,30.025c-2.125,7.97-1.594,17.003,3.142,23.756
				C514.323,169.335,524.391,174.077,533.529,168.779z"/>
		</g>
		<g>
			<g>
				<g>
					<polygon style="fill:#E37673;" points="554.819,297.017 555.007,242.117 558.898,241.98 558.71,296.88 					"/>
					<path style="fill:#383838;" d="M552.554,239.125c-0.083-2.37,1.77-4.358,4.14-4.441c2.37-0.083,4.358,1.77,4.441,4.14
						c0.083,2.37-1.77,4.358-4.14,4.441C554.626,243.348,552.638,241.495,552.554,239.125z"/>
				</g>
				<path style="fill:#A83123;" d="M527.572,388.629l0.483-83.992c0.027-5.296,4.343-9.567,9.639-9.54l29.487,0.152
					c5.296,0.027,9.567,4.343,9.54,9.639l-0.483,83.992c-0.027,5.296-4.343,9.567-9.639,9.54l-29.487-0.152
					C531.816,398.24,527.545,393.925,527.572,388.629z"/>
				<path style="fill:none;stroke:#383838;stroke-width:2;stroke-miterlimit:10;" d="M552.331,330.801
					c-1.372,0.044-3.428,0.248-4.616,2.454c-0.6,1.114-0.508,2.448-0.501,3.701c0.018,3.545-0.203,6.358-0.185,9.903
					c0.007,1.348,0.031,2.761,0.742,3.95c0.711,1.188,2.755,2.429,4.446,2.232"/>
				<path style="fill:none;stroke:#752219;stroke-miterlimit:10;" d="M552.437,295.201c0.249,37.618-0.83,65.496-0.581,103.115"/>
				<g>
					
						<rect x="549.664" y="323.595" transform="matrix(1 0.0052 -0.0052 1 1.688 -2.8485)" style="fill:#FFFFFF;" width="5.84" height="3.893"/>
					
						<rect x="549.495" y="356.299" transform="matrix(1 0.0052 -0.0052 1 1.8569 -2.8472)" style="fill:#FFFFFF;" width="5.84" height="3.893"/>
				</g>
				
					<ellipse transform="matrix(0.2344 -0.9722 0.9722 0.2344 37.8115 854.2933)" style="fill:#383838;" cx="561.258" cy="403.142" rx="4.778" ry="4.778"/>
			</g>
			<g>
				<g>
					<path style="fill:#FEC3B9;" d="M584.26,224.339c-4.778,0.564-9.604-0.136-14.414-0.251c-4.81-0.114-9.874,0.445-13.853,3.601
						c0.941,4.084,2.773,6.35,6.326,8.944c3.823-0.005,8.396,0.191,11.275-2.324c0.981-0.856,2.128-1.368,3.149-1.6
						c2.528-0.575,4.375-0.359,7.171,0.015L584.26,224.339z"/>
					<path style="fill:#FEC3B9;" d="M561.166,225.101c-4.202,1.082-7.449,3.897-10.293,7.015c-0.677,0.742-1.345,1.55-1.589,2.525
						c-0.144,0.576-0.066,1.303,0.454,1.588c0.334,0.183,0.759,0.12,1.093-0.061c0.335-0.182,0.599-0.467,0.861-0.744
						c3.081-3.254,6.705-5.507,10.676-7.583C562.094,226.902,561.956,226.271,561.166,225.101z"/>
					<path style="fill:#FEC3B9;" d="M559.772,228.299c-3.672,2.079-6.988,4.785-9.762,7.966c-0.661,0.758-1.31,1.58-1.532,2.56
						c-0.131,0.579-0.037,1.304,0.489,1.578c0.338,0.176,0.761,0.103,1.092-0.086c0.33-0.189,0.588-0.481,0.844-0.763
						c3.007-3.323,6.568-6.142,10.492-8.307C561.1,230.315,560.588,229.452,559.772,228.299z"/>
					<path style="fill:#FEC3B9;" d="M562.32,229.654c-3.672,2.079-6.989,4.785-9.762,7.966c-0.661,0.757-1.31,1.58-1.532,2.56
						c-0.131,0.579-0.037,1.304,0.489,1.578c0.338,0.176,0.761,0.103,1.092-0.086c0.33-0.189,0.588-0.48,0.844-0.763
						c3.007-3.323,6.568-6.142,10.492-8.307C563.648,231.669,563.136,230.806,562.32,229.654z"/>
					<path style="fill:#FEC3B9;" d="M564.748,230.824c-3.06,2.281-5.73,5.084-7.86,8.251c-0.507,0.754-0.997,1.566-1.085,2.47
						c-0.052,0.534,0.114,1.174,0.617,1.36c0.323,0.12,0.695,0.007,0.97-0.201c0.275-0.207,0.473-0.498,0.671-0.78
						c2.323-3.321,5.2-6.254,8.477-8.639C566.168,232.482,565.611,231.766,564.748,230.824z"/>
				</g>
				<path style="fill:#F64735;" d="M605.626,174.266c3.623,0.906,6.387,3.954,7.988,7.328c1.601,3.374,2.239,7.107,3.065,10.749
					c2.793,12.321,10.073,30.534,7.436,35.903c-2.188,4.454-5.916,6.317-10.805,7.171c-6.825,1.192-17.664,4.29-23.844,4.846
					c-3.933,0.354-8.498-1.012-10.054-4.641l-3.283-0.261l-0.319-13.203c0,0,3.659-0.317,4.231-0.439
					c4.387-9.45,17.106-1.749,24.701-2.078c-1.493-10.857-2.64-15.283-6.202-22.327c-1.698-3.357-3.434-6.866-3.477-10.628
					C595,181.176,599.085,172.63,605.626,174.266z"/>
			</g>
			<g>
				<path style="fill:#383838;" d="M606.313,99.2c-0.454,7.236-4.287,14.19-10.164,18.437c-3.128,2.261-7,4.023-8.554,7.557
					c-2.151,4.89,1.222,10.713-0.29,15.837c-0.991,3.357-3.872,5.748-5.905,8.598c-3.129,4.384-4.249,10.145-2.991,15.382
					c1.258,5.237,4.553,10.607,9.651,12.346c12.416,4.237,16.163-6.097,19.828-9.549c2.886-2.718,7.26-2.926,10.901-4.495
					c4.759-2.051,8.209-6.516,9.855-11.43c1.646-4.914,1.652-10.246,0.945-15.38C627.67,122.582,620.454,109.457,606.313,99.2z"/>
				<path style="fill:none;stroke:#383838;stroke-miterlimit:10;" d="M600.353,116.628c-3.633,1.455-7.327,2.945-10.372,5.404
					c-3.045,2.459-5.399,6.079-5.383,9.993c0.015,3.687,2.088,7.278,1.404,10.901c-0.741,3.924-4.389,6.486-6.918,9.577
					c-4.377,5.349-5.936,11.471-0.586,19.93"/>
			</g>
			<g>
				<g>
					<rect x="590.125" y="356.767" style="fill:#FEC3B9;" width="12.653" height="32.363"/>
					<g>
						<rect x="563.359" y="410.866" style="fill:#FFFFFF;" width="42.193" height="3.455"/>
						<path style="fill:#383838;" d="M563.337,412.239c3.056,0,6.103,0.029,9.159,0.078c10.969,0.146,21.958,0.448,33.073-0.078
							c1.557-6.064,0.214-10.327-0.837-13.987c-1.479-5.159-1.411-12.595-0.389-18.337c0,0-10.074,0.506-15.408-0.029
							c0.35,4.643,0.224,6.025,0.282,9.587c0.019,1.849-0.438,3.913-1.255,5.577c-1.343,2.716-4.516,3.952-7.475,4.652
							c-3.28,0.779-6.648,1.207-9.918,2.034c-0.234,0.049-0.467,0.117-0.701,0.175c-2.482,0.672-5.061,1.742-6.434,3.913
							C561.819,408.375,562.325,409.397,563.337,412.239z"/>
						<path style="fill:#FFFFFF;" d="M563.337,412.239c3.056,0,6.103,0.029,9.159,0.078c0.214-1.713,0.35-3.436,0.175-5.139
							c-0.204-1.956-0.857-3.932-2.102-5.441c-0.234,0.049-0.467,0.117-0.701,0.175c-2.482,0.672-5.061,1.742-6.434,3.913
							C561.819,408.375,562.325,409.397,563.337,412.239z"/>
						<path style="fill:#FFFFFF;" d="M601.793,404.714c0-2.52-2.043-4.563-4.563-4.563c-2.52,0-4.562,2.043-4.562,4.563
							c0,2.52,2.043,4.562,4.562,4.562C599.75,409.276,601.793,407.234,601.793,404.714z"/>
						<g>
							<path style="fill:none;stroke:#FFFFFF;stroke-linejoin:bevel;stroke-miterlimit:10;" d="M591.755,383.445
								c-1.075,0.025-2.15,0.051-3.226,0.076c0.811,1.331,1.937,2.469,3.26,3.295c-1.347-0.203-2.727-0.185-4.068,0.053
								c1.073,1.669,2.531,3.088,4.228,4.115c-1.515,0.132-3.029,0.264-4.544,0.396c1.023,1.662,2.521,3.029,4.269,3.896
								c-1.867-0.047-3.734-0.093-5.602-0.14c0.763,1.364,1.527,2.728,2.29,4.092c-1.587-0.728-3.321-1.132-5.065-1.182
								c-0.019,1.402-0.038,2.804-0.057,4.205c-1.562-1.077-3.123-2.154-4.684-3.231c-0.535,1.322-1.071,2.643-1.606,3.964
								c-0.81-1.054-1.62-2.108-2.43-3.163"/>
							<path style="fill:none;stroke:#FFFFFF;stroke-linejoin:bevel;stroke-miterlimit:10;" d="M590.105,381.728
								c1.252,0.676,2.503,1.376,3.595,2.288c1.092,0.912,2.027,2.057,2.488,3.403c0.212,0.621,0.192,1.51-0.435,1.702
								c-0.504,0.155-0.98-0.285-1.311-0.695c-1.477-1.826-2.664-3.887-3.503-6.08c0.401,2.693,0.244,5.467-0.459,8.098
								c-0.11,0.413-0.241,0.835-0.517,1.161c-0.276,0.326-0.736,0.533-1.14,0.395c-0.62-0.212-0.748-1.023-0.731-1.678
								C588.165,387.502,588.968,384.704,590.105,381.728z"/>
						</g>
					</g>
				</g>
				<g>
					<rect x="590.125" y="356.767" style="fill:#FEC3B9;" width="12.653" height="32.363"/>
					<g>
						<rect x="563.359" y="410.866" style="fill:#FFFFFF;" width="42.193" height="3.455"/>
						<path style="fill:#383838;" d="M563.337,412.239c3.056,0,6.103,0.029,9.159,0.078c10.969,0.146,21.958,0.448,33.073-0.078
							c1.557-6.064,0.214-10.327-0.837-13.987c-1.479-5.159-1.411-12.595-0.389-18.337c0,0-10.074,0.506-15.408-0.029
							c0.35,4.643,0.224,6.025,0.282,9.587c0.019,1.849-0.438,3.913-1.255,5.577c-1.343,2.716-4.516,3.952-7.475,4.652
							c-3.28,0.779-6.648,1.207-9.918,2.034c-0.234,0.049-0.467,0.117-0.701,0.175c-2.482,0.672-5.061,1.742-6.434,3.913
							C561.819,408.375,562.325,409.397,563.337,412.239z"/>
						<path style="fill:#FFFFFF;" d="M563.337,412.239c3.056,0,6.103,0.029,9.159,0.078c0.214-1.713,0.35-3.436,0.175-5.139
							c-0.204-1.956-0.857-3.932-2.102-5.441c-0.234,0.049-0.467,0.117-0.701,0.175c-2.482,0.672-5.061,1.742-6.434,3.913
							C561.819,408.375,562.325,409.397,563.337,412.239z"/>
						<path style="fill:#FFFFFF;" d="M601.793,404.714c0-2.52-2.043-4.563-4.563-4.563c-2.52,0-4.562,2.043-4.562,4.563
							c0,2.52,2.043,4.562,4.562,4.562C599.75,409.276,601.793,407.234,601.793,404.714z"/>
						<g>
							<path style="fill:none;stroke:#FFFFFF;stroke-linejoin:bevel;stroke-miterlimit:10;" d="M591.755,383.445
								c-1.075,0.025-2.15,0.051-3.226,0.076c0.811,1.331,1.937,2.469,3.26,3.295c-1.347-0.203-2.727-0.185-4.068,0.053
								c1.073,1.669,2.531,3.088,4.228,4.115c-1.515,0.132-3.029,0.264-4.544,0.396c1.023,1.662,2.521,3.029,4.269,3.896
								c-1.867-0.047-3.734-0.093-5.602-0.14c0.763,1.364,1.527,2.728,2.29,4.092c-1.587-0.728-3.321-1.132-5.065-1.182
								c-0.019,1.402-0.038,2.804-0.057,4.205c-1.562-1.077-3.123-2.154-4.684-3.231c-0.535,1.322-1.071,2.643-1.606,3.964
								c-0.81-1.054-1.62-2.108-2.43-3.163"/>
							<path style="fill:none;stroke:#FFFFFF;stroke-linejoin:bevel;stroke-miterlimit:10;" d="M590.105,381.728
								c1.252,0.676,2.503,1.376,3.595,2.288c1.092,0.912,2.027,2.057,2.488,3.403c0.212,0.621,0.192,1.51-0.435,1.702
								c-0.504,0.155-0.98-0.285-1.311-0.695c-1.477-1.826-2.664-3.887-3.503-6.08c0.401,2.693,0.244,5.467-0.459,8.098
								c-0.11,0.413-0.241,0.835-0.517,1.161c-0.276,0.326-0.736,0.533-1.14,0.395c-0.62-0.212-0.748-1.023-0.731-1.678
								C588.165,387.502,588.968,384.704,590.105,381.728z"/>
						</g>
					</g>
				</g>
				<g>
					<rect x="629.056" y="356.767" style="fill:#FEC3B9;" width="12.653" height="32.363"/>
					<g>
						<rect x="602.29" y="410.866" style="fill:#FFFFFF;" width="42.193" height="3.455"/>
						<path style="fill:#383838;" d="M602.268,412.239c3.056,0,6.103,0.029,9.159,0.078c10.969,0.146,21.958,0.448,33.073-0.078
							c1.557-6.064,0.214-10.327-0.837-13.987c-1.479-5.159-1.411-12.595-0.389-18.337c0,0-10.074,0.506-15.408-0.029
							c0.35,4.643,0.224,6.025,0.282,9.587c0.019,1.849-0.438,3.913-1.256,5.577c-1.343,2.716-4.516,3.952-7.475,4.652
							c-3.28,0.779-6.648,1.207-9.918,2.034c-0.234,0.049-0.467,0.117-0.701,0.175c-2.482,0.672-5.061,1.742-6.434,3.913
							C600.75,408.375,601.256,409.397,602.268,412.239z"/>
						<path style="fill:#FFFFFF;" d="M602.268,412.239c3.056,0,6.103,0.029,9.159,0.078c0.214-1.713,0.35-3.436,0.175-5.139
							c-0.204-1.956-0.857-3.932-2.102-5.441c-0.234,0.049-0.467,0.117-0.701,0.175c-2.482,0.672-5.061,1.742-6.434,3.913
							C600.75,408.375,601.256,409.397,602.268,412.239z"/>
						<path style="fill:#FFFFFF;" d="M640.724,404.714c0-2.52-2.043-4.563-4.562-4.563c-2.52,0-4.563,2.043-4.563,4.563
							c0,2.52,2.043,4.562,4.563,4.562C638.681,409.276,640.724,407.234,640.724,404.714z"/>
						<g>
							<path style="fill:none;stroke:#FFFFFF;stroke-linejoin:bevel;stroke-miterlimit:10;" d="M630.686,383.445
								c-1.075,0.025-2.151,0.051-3.226,0.076c0.811,1.331,1.937,2.469,3.26,3.295c-1.347-0.203-2.727-0.185-4.068,0.053
								c1.073,1.669,2.531,3.088,4.228,4.115c-1.515,0.132-3.029,0.264-4.544,0.396c1.023,1.662,2.521,3.029,4.269,3.896
								c-1.867-0.047-3.734-0.093-5.601-0.14c0.763,1.364,1.526,2.728,2.29,4.092c-1.587-0.728-3.32-1.132-5.065-1.182
								c-0.019,1.402-0.038,2.804-0.057,4.205c-1.561-1.077-3.123-2.154-4.684-3.231c-0.535,1.322-1.071,2.643-1.606,3.964
								c-0.81-1.054-1.62-2.108-2.43-3.163"/>
							<path style="fill:none;stroke:#FFFFFF;stroke-linejoin:bevel;stroke-miterlimit:10;" d="M629.036,381.728
								c1.252,0.676,2.502,1.376,3.595,2.288c1.092,0.912,2.027,2.057,2.488,3.403c0.212,0.621,0.192,1.51-0.435,1.702
								c-0.504,0.155-0.98-0.285-1.311-0.695c-1.477-1.826-2.664-3.887-3.503-6.08c0.401,2.693,0.244,5.467-0.459,8.098
								c-0.11,0.413-0.241,0.835-0.517,1.161c-0.276,0.326-0.735,0.533-1.14,0.395c-0.62-0.212-0.748-1.023-0.731-1.678
								C627.096,387.502,627.899,384.704,629.036,381.728z"/>
						</g>
					</g>
				</g>
				<g>
					<defs>
						<path id="SVGID_1_" d="M591.787,205.861c-8.883,54.362-15.437,109.252-18.765,165.079c12.006,7.668,27.605,9.097,38.542,1.46
							c4.263-56.17,7.187-112.331,8.473-168.748L591.787,205.861z"/>
					</defs>
					<clipPath id="SVGID_00000121978320550062408830000006243190922419193746_">
						<use xlink:href="#SVGID_1_"  style="overflow:visible;"/>
					</clipPath>
					<path style="clip-path:url(#SVGID_00000121978320550062408830000006243190922419193746_);fill:#E37673;" d="M591.787,205.861
						c-8.883,54.362-15.437,109.252-18.765,165.079c12.006,7.668,27.605,9.097,38.542,1.46c4.263-56.17,7.187-112.331,8.473-168.748
						L591.787,205.861z"/>
					<g style="clip-path:url(#SVGID_00000121978320550062408830000006243190922419193746_);">
						<path style="fill:none;stroke:#F0AFAD;stroke-miterlimit:10;" d="M598.359,188.944
							c-8.203,57.316-17.802,131.438-22.378,189.157"/>
						<path style="fill:none;stroke:#F0AFAD;stroke-miterlimit:10;" d="M603.225,191.864
							c-8.203,57.316-17.802,131.438-22.378,189.157"/>
						<path style="fill:none;stroke:#F0AFAD;stroke-miterlimit:10;" d="M608.088,188.944
							c-8.203,57.316-16.342,134.358-20.918,192.077"/>
						<path style="fill:none;stroke:#F0AFAD;stroke-miterlimit:10;" d="M611.383,191.555
							c-6.365,57.549-13.588,131.94-16.315,189.776"/>
						<path style="fill:none;stroke:#F0AFAD;stroke-miterlimit:10;" d="M615.996,188.944
							c-6.365,57.549-11.642,134.55-14.369,192.387"/>
						<path style="fill:none;stroke:#F0AFAD;stroke-miterlimit:10;" d="M620.037,187.684c-6.365,57.549-8.499,135.81-11.226,193.647
							"/>
					</g>
				</g>
				<g>
					<defs>
						<path id="SVGID_00000137852581452922522770000016265604050113428903_" d="M614.629,206.801
							c-2.606,55.021-2.837,110.3,0.242,166.141c12.805,6.244,28.465,5.879,38.456-2.959c-2.191-56.288-5.71-112.416-10.886-168.609
							L614.629,206.801z"/>
					</defs>
					<clipPath id="SVGID_00000081624702782971672310000001752058416423303352_">
						<use xlink:href="#SVGID_00000137852581452922522770000016265604050113428903_"  style="overflow:visible;"/>
					</clipPath>
					<path style="clip-path:url(#SVGID_00000081624702782971672310000001752058416423303352_);fill:#E37673;" d="M614.629,206.801
						c-2.606,55.021-2.837,110.3,0.242,166.141c12.805,6.244,28.465,5.879,38.456-2.959c-2.191-56.288-5.71-112.416-10.886-168.609
						L614.629,206.801z"/>
					<g style="clip-path:url(#SVGID_00000081624702782971672310000001752058416423303352_);">
						<path style="fill:none;stroke:#F0AFAD;stroke-miterlimit:10;" d="M619.222,189.243c-1.592,57.878-2.649,132.611-0.592,190.475
							"/>
						<path style="fill:none;stroke:#F0AFAD;stroke-miterlimit:10;" d="M624.391,191.587c-1.592,57.879-2.649,132.611-0.592,190.475
							"/>
						<path style="fill:none;stroke:#F0AFAD;stroke-miterlimit:10;" d="M628.887,188.13c-1.592,57.879-0.865,135.345,1.193,193.209"
							/>
						<path style="fill:none;stroke:#F0AFAD;stroke-miterlimit:10;" d="M632.459,190.347c0.26,57.9,1.594,132.628,5.501,190.397"/>
						<path style="fill:none;stroke:#F0AFAD;stroke-miterlimit:10;" d="M636.744,187.226c0.26,57.9,3.827,134.999,7.734,192.768"/>
						<path style="fill:none;stroke:#F0AFAD;stroke-miterlimit:10;" d="M640.614,185.512c0.26,57.9,7.093,135.891,11,193.66"/>
					</g>
				</g>
			</g>
			<g>
				<path style="fill:#FEC3B9;" d="M630.175,110.934c1.157,6.193-0.964,12.714-4.855,17.662c-3.891,4.948-8.56,9.285-14.602,11.022
					c-3.977,1.144-7.768-0.331-10.09-2.949c-2.322-2.619-3.229-6.189-3.701-9.659c-0.026-0.211-0.049-0.413-0.075-0.624
					c-0.271-2.201-0.382-4.45-0.291-6.668c0.184-4.659,1.28-9.241,3.692-13.189c3.69-6.015,10.955-10.146,17.852-8.683
					C624.261,99.16,629.022,104.749,630.175,110.934z"/>
				<g>
					<path style="fill:#383838;" d="M599.273,120.22c-0.276-0.649,0.026-1.399,0.675-1.676c0.649-0.276,1.399,0.026,1.676,0.675
						c0.277,0.649-0.026,1.399-0.675,1.676C600.3,121.171,599.549,120.869,599.273,120.22z"/>
					<path style="fill:#383838;" d="M610.622,121.469c-0.277-0.649,0.026-1.399,0.675-1.676c0.649-0.276,1.399,0.026,1.676,0.675
						c0.276,0.649-0.026,1.4-0.675,1.676C611.649,122.42,610.899,122.118,610.622,121.469z"/>
					<path style="fill:#F28F7E;" d="M611.692,127.1c-0.751-1.764,0.07-3.802,1.833-4.553c1.764-0.751,3.802,0.07,4.553,1.833
						c0.751,1.764-0.07,3.802-1.833,4.553C614.482,129.684,612.443,128.863,611.692,127.1z"/>
					<path style="fill:#F28F7E;" d="M598.967,121.74c0.751,1.764-0.066,3.794-1.83,4.546c-0.098,0.042-0.188,0.08-0.285,0.1
						c-0.271-2.201-0.382-4.45-0.291-6.668C597.593,119.955,598.513,120.674,598.967,121.74z"/>
					<path style="fill:#383838;" d="M602.179,115.149c0.334-0.017,0.684-0.16,0.847-0.452c0.196-0.351,0.053-0.818-0.24-1.092
						c-0.294-0.275-0.701-0.391-1.099-0.449c-0.919-0.134-1.919,0.021-2.633,0.615c-0.336,0.28-0.609,0.751-0.411,1.142
						c0.132,0.261,0.459,0.496,0.734,0.397C600.508,114.902,601.845,115.166,602.179,115.149z"/>
					<path style="fill:#383838;" d="M609.399,115.652c-0.326-0.072-0.649-0.271-0.761-0.586c-0.135-0.378,0.083-0.815,0.418-1.038
						c0.335-0.222,0.756-0.27,1.158-0.261c0.928,0.02,1.889,0.338,2.495,1.042c0.286,0.331,0.476,0.842,0.217,1.194
						c-0.174,0.235-0.535,0.413-0.79,0.27C611.087,115.685,609.725,115.724,609.399,115.652z"/>
					<path style="fill:none;stroke:#383838;stroke-width:0.7;stroke-miterlimit:10;" d="M609.585,129.573
						c-2.491,1.791-5.861,2.29-8.763,1.297"/>
					<path style="fill:#F28F7E;" d="M604.638,119.492c0.048,1.282-2.985,3.88-3.478,4.221c-0.628,0.434-0.596,0.965-0.188,1.599
						c0.889,1.38,3.571,2.019,4.45,0.088C605.661,124.874,605.685,122.675,604.638,119.492z"/>
				</g>
				<path style="fill:#383838;" d="M620.988,107.299c-0.443,1.636-0.887,3.271-1.498,4.775c-3.546,0.322-7.115,0.644-10.662,0.332
					c-3.547-0.312-7.108-1.296-9.941-3.278c0.796-5.499,4.978-10.363,10.312-12.101c4.576-2.164,10.103-2.208,14.713-0.117
					c4.61,2.091,8.218,6.279,9.603,11.147c0.876,3.078,0.96,6.511,2.852,9.093c2.565,3.499,7.449,4.172,11.135,6.46
					c3.985,2.474,6.546,7.091,6.536,11.781c-0.007,3.057-0.987,6.317,0.39,9.046c0.861,1.704,2.493,2.854,3.866,4.181
					c4.478,4.326,6.323,11.186,4.62,17.175c-1.703,5.989-6.882,10.851-12.967,12.174c-5.79,1.259-11.988-0.599-16.727-4.157
					c-4.739-3.557-8.132-8.669-10.484-14.108c-3.431-7.938-5.324-16.365-3.16-24.737c1.13-4.372,3.097-6.943,3.301-10.294
					C623.23,118.88,619.796,113.087,620.988,107.299z"/>
				<g>
					<path style="fill:#FEC3B9;" d="M626.029,126.265c0.646-2.051-0.388-4.204-2.311-4.811c-1.923-0.606-4.005,0.565-4.652,2.616
						c-0.647,2.051,0.388,4.204,2.31,4.811C623.3,129.487,625.383,128.316,626.029,126.265z"/>
					<g>
						<path style="fill:none;stroke:#F28F7E;stroke-width:0.6;stroke-miterlimit:10;" d="M623.904,123.047
							c-1.183,1.335-2.054,2.944-2.527,4.663"/>
						<path style="fill:none;stroke:#F28F7E;stroke-width:0.6;stroke-miterlimit:10;" d="M624.821,125.29
							c-1.021-0.033-2.05,0.254-2.907,0.809"/>
					</g>
				</g>
			</g>
			<g>
				<path style="fill:#F64735;" d="M603.299,144.303c1.332-3.398,5.113-5.15,8.689-5.878c8.945-1.821,18.699,0.941,25.362,7.181
					c2.387,2.236,4.507,5.571,3.296,8.61c3.601,1.496,6.638,4.5,7.78,8.228c1.142,3.728,0.196,8.12-2.662,10.772
					c-2.381,2.209-5.73,3.041-8.964,3.332c-8.722,0.785-17.833-1.993-24.216-7.989S600.001,152.717,603.299,144.303z"/>
				<path style="fill:#F64735;" d="M617.236,144.186c-2.216,1.276-4.507,2.579-7.044,2.904c-2.537,0.325-5.408-0.57-6.525-3.083
					c-4.981,3.913-10.134,8.037-12.827,13.77c-4.891,10.41-0.371,22.972-3.37,34.077c-0.843,3.122-2.264,6.054-3.307,9.115
					c-1.042,3.061-1.703,6.376-0.959,9.523c0.743,3.147,3.175,6.059,6.37,6.555c0,0-0.803,3.948-0.676,3.417
					c18.431,7.658,40.533,5.785,57.413-4.864c0,0-1.198-5.064-0.981-5.294c2.386-1.462,3.348-4.553,3.094-7.339
					c-0.254-2.786-1.497-5.37-2.654-7.918c-4.708-10.365-8.301-21.236-10.695-32.365c-1.031-4.791-1.898-9.777-4.6-13.865
					C627.774,144.73,622.352,141.24,617.236,144.186z"/>
				<rect x="607.565" y="133.314" style="fill:#FEC3B9;" width="12.41" height="11.923"/>
				<path style="fill:#FEC3B9;" d="M601.865,146.331c0.175,0.779,0.652,1.509,1.275,2.005c1.081,0.857,2.511,1.168,3.884,1.285
					c5.071,0.467,10.288-1.285,14.113-4.643c-2.9-0.691-6.171-0.769-9.655-1.168C608.124,143.421,604.727,144.492,601.865,146.331z"
					/>
				<g>
					<path style="fill:none;stroke:#B33527;stroke-miterlimit:10;" d="M634.966,292.911c3.369-12.766,6.377-25.763,8.593-36.632
						c0.583-2.859,1.917-6.364,4.833-6.476c1.506-0.058,2.897,0.93,3.736,2.183c0.839,1.252,1.226,2.744,1.599,4.204
						c3.035,11.868,6.071,24.854,9.106,36.722"/>
					<g>
						<rect x="616.779" y="285.297" style="fill:#FFDAD6;" width="64.239" height="70.139"/>
						<rect x="616.779" y="333.963" style="fill:#B33527;" width="64.239" height="8.76"/>
						
							<rect x="616.779" y="324.23" transform="matrix(-1 -1.224647e-16 1.224647e-16 -1 1297.7981 653.3264)" style="fill:#B33527;" width="64.239" height="4.867"/>
					</g>
				</g>
				<g>
					<g>
						<path style="fill:#FEC3B9;" d="M650.732,218.753c-1.757,4.479-4.65,8.404-7.019,12.592c-2.369,4.188-4.265,8.916-3.359,13.914
							c4.045,1.096,6.907,0.55,10.87-1.36c1.798-3.374,4.128-7.314,3.269-11.039c-0.293-1.269-0.202-2.521,0.074-3.532
							c0.685-2.501,1.747-4.027,3.396-6.316L650.732,218.753z"/>
						<path style="fill:#FEC3B9;" d="M640.644,238.558c-0.837,4.136-0.968,8.414-0.385,12.594c0.139,0.995,0.334,2.025,0.929,2.835
							c0.351,0.478,0.96,0.883,1.512,0.665c0.354-0.14,0.577-0.507,0.651-0.881c0.074-0.374,0.023-0.759-0.023-1.137
							c-0.538-4.449-0.332-8.987,0.606-13.369C643.037,238.876,642.049,238.697,640.644,238.558z"/>
						<path style="fill:#FEC3B9;" d="M642.674,242.214c0.101,4.219,0.923,8.419,2.42,12.365c0.356,0.94,0.775,1.9,1.535,2.558
							c0.448,0.389,1.132,0.648,1.622,0.313c0.314-0.215,0.45-0.623,0.439-1.003c-0.011-0.381-0.146-0.745-0.275-1.104
							c-1.512-4.219-2.318-8.689-2.376-13.17C645.078,241.994,644.075,242.038,642.674,242.214z"/>
						<path style="fill:#FEC3B9;" d="M645.07,240.607c0.102,4.219,0.924,8.419,2.42,12.365c0.356,0.94,0.775,1.9,1.535,2.558
							c0.448,0.388,1.132,0.648,1.622,0.313c0.314-0.215,0.45-0.623,0.439-1.003c-0.011-0.381-0.146-0.745-0.275-1.104
							c-1.512-4.218-2.318-8.689-2.376-13.17C647.473,240.386,646.471,240.431,645.07,240.607z"/>
						<path style="fill:#FEC3B9;" d="M647.247,239.017c0.568,3.774,1.78,7.451,3.568,10.822c0.426,0.803,0.91,1.617,1.666,2.122
							c0.446,0.298,1.089,0.453,1.491,0.098c0.258-0.229,0.334-0.61,0.281-0.95c-0.053-0.34-0.215-0.652-0.371-0.959
							c-1.833-3.615-3.062-7.535-3.62-11.549C649.379,238.548,648.485,238.701,647.247,239.017z"/>
					</g>
					<path style="fill:#F64735;" d="M639.183,240.139c4.141,1.038,11.465,1.972,15.545,0.716c-0.104-0.764-0.221-1.526-0.325-2.29
						c2.615-0.453,5.097-1.445,6.807-3.406c3.229-3.713,2.507-9.331,1.362-14.117c-3.795-15.957-10.072-31.22-16.825-46.164
						c-3.043-6.731-6.474-13.757-12.611-17.859c-3.107-2.081-7.004-3.286-10.616-2.356c-3.62,0.924-6.448,4.592-5.324,7.59
						c6.906,18.429,19.016,35.38,16.43,54.893c-1.009,7.613-2.068,15.922,5.413,18.996
						C639.019,236.264,639.152,240.157,639.183,240.139z"/>
				</g>
				<g>
					<path style="fill:none;stroke:#B03427;stroke-miterlimit:10;" d="M588.165,191.121c6.75,1.458,13.729,1.856,20.959,1.35
						c-0.835,4.177-1.67,8.357-2.256,12.575c-0.242,1.738-0.417,3.615,0.429,5.152c1.214,2.206,4.575,2.827,6.497,1.199"/>
					<path style="fill:none;stroke:#B03427;stroke-miterlimit:10;" d="M622.509,152.361c-6.318,7.936,2.152,18.808,4.066,24.56
						c5.141,15.448,6.583,29.845,6.515,46.126"/>
					<path style="fill:none;stroke:#B03427;stroke-miterlimit:10;" d="M639.158,236.067c4.489,0.757,9.042,1.137,13.594,1.134"/>
					<path style="fill:none;stroke:#B03427;stroke-miterlimit:10;" d="M632.738,150.824c5.73,8.839,10.513,18.291,14.243,28.143"/>
					<path style="fill:none;stroke:#B03427;stroke-miterlimit:10;" d="M590.007,216.987c13.674,4.785,28.872,5.099,42.732,0.884"/>
				</g>
			</g>
		</g>
	</g>
</g>
</svg>
